# xmcd
# 
# Track frame offsets:
#     150
#     13328
#     21067
#     32839
#     47745
#     54120
#     71377
#     81620
#     95232
#     105110
#     117178
#     129721
#     140476
#     146265
#     157887
#     168595
#     180262
#     194655
#     205920
# 
# Disc length: 2972
# 
# Revision: 2
# Processed by: cddbd v1.5.2PL0 Copyright (c) Steve Scherf et al.
# Submitted via: fre:ac v1.0.31
# 
DISCID=050b9a13
DTITLE=HOT CLUB OF COWTOWN - HOT WESTERN
DYEAR=2002
DGENRE=Country
TTITLE0=I Had Someone Else
TTITLE1=Red Bird
TTITLE2=Dev'lish Mary
TTITLE3=You Can't Break My Heart
TTITLE4=5evil's Dream
TTITLE5=It's Only Lazy Day
TTITLE6=Little Liza Jane
TTITLE7=My Confession
TTITLE8=Draggin' The Bow
TTITLE9=Sweet Jenny Lee
TTITLE10=When The Bloom Is On The Sage
TTITLE11=Bonaparte's Retreat
TTITLE12=Way Down Yonder In The Cornfield
TTITLE13=Sally Goodin'
TTITLE14=You Don't Care What Happpens To Me
TTITLE15=My Life's Been A Pleasure
TTITLE16=Ida Red
TTITLE17=Oklahoma Rag (Live)
TTITLE18=Orange Blossom Special (Live)
EXTD=
EXTT0=
EXTT1=
EXTT2=
EXTT3=
EXTT4=
EXTT5=
EXTT6=
EXTT7=
EXTT8=
EXTT9=
EXTT10=
EXTT11=
EXTT12=
EXTT13=
EXTT14=
EXTT15=
EXTT16=
EXTT17=
EXTT18=
PLAYORDER=
